<svg id="Layer_1" data-name="Layer 1" xmlns="http://www.w3.org/2000/svg" viewBox="0 0 2000 2000"><defs><style>.cls-1{fill:#f0542e;}.cls-2{fill:#231f20;}.cls-3{fill:#f6b918;}</style></defs><title>Full Colour Icon 1</title><path class="cls-1" d="M921.88,208.07,623.68,810.4a56.1,56.1,0,0,0,11.51,65.47l27.29,25.75A52.72,52.72,0,0,0,741.79,894L927,638.45a52.79,52.79,0,0,1,85.52-.7l200.17,267.14a52.72,52.72,0,0,0,79.78,6L1324.61,879a56.14,56.14,0,0,0,10-65.65L1016.91,206.94A53,53,0,0,0,921.88,208.07Z"/><path class="cls-2" d="M607.16,1013.52h0A56.19,56.19,0,0,1,611,1083l-136.41,193.4a56.2,56.2,0,0,0,1.07,66L621.2,1534.9a56.16,56.16,0,0,1-3.38,71.56L379.14,1865.81a53,53,0,0,1-39.63,17.24l-161.29-2c-39.85-.5-65.26-43.87-47-80.24L519.93,1025.5C537,991.42,582,985.25,607.16,1013.52Z"/><path class="cls-3" d="M1357.29,1022.73,1343.77,1039a56.19,56.19,0,0,0-1.59,69.47l120.6,159.72a56.21,56.21,0,0,1,2.09,64.49l-123.55,188.22a56.14,56.14,0,0,0,6.86,70l279,281.84a52.92,52.92,0,0,0,37.72,15.82l136.91-.3c40.46-.08,66.26-44.38,47.17-81l-403.61-774.73C1427.55,998.32,1381.81,993.24,1357.29,1022.73Z"/><path class="cls-3" d="M1133.76,1796.43l72.2-93.85a52.71,52.71,0,0,1,79.59-5.21l93,93.49c34.29,34.47,10.59,94.29-37.4,94.39l-165.23.35C1131.1,1885.7,1106,1832.57,1133.76,1796.43Z"/><path class="cls-2" d="M846.92,1795.35l-72.15-93.89a52.72,52.72,0,0,0-79.59-5.26l-93.07,93.45c-34.31,34.45-10.64,94.28,37.35,94.41l165.23.43C849.54,1884.61,874.71,1831.5,846.92,1795.35Z"/></svg>