<svg id="Layer_1" data-name="Layer 1" xmlns="http://www.w3.org/2000/svg" viewBox="0 0 2000 2000"><defs><style>.cls-1{fill:#f0542e;}.cls-2{fill:#fff;}.cls-3{fill:#f6b918;}</style></defs><title>Full Colour Icon 2</title><path class="cls-1" d="M920.26,146.27,617.49,757.82a57,57,0,0,0,11.69,66.48l27.71,26.15a53.54,53.54,0,0,0,80.53-7.78l188-259.43a53.6,53.6,0,0,1,86.83-.71L1215.5,853.77a53.53,53.53,0,0,0,81,6.1l32.66-32.43a57,57,0,0,0,10.11-66.65L1016.75,145.12A53.8,53.8,0,0,0,920.26,146.27Z"/><path class="cls-2" d="M600.71,964.06h0a57,57,0,0,1,3.94,70.53L466.15,1231a57.1,57.1,0,0,0,1.09,67L615,1493.44a57,57,0,0,1-3.44,72.65L369.2,1829.42a53.75,53.75,0,0,1-40.24,17.5l-163.76-2.05c-40.46-.51-66.26-44.54-47.74-81.47L512.15,976.23C529.5,941.63,575.12,935.36,600.71,964.06Z"/><path class="cls-3" d="M1362.34,973.41l-13.72,16.51a57.06,57.06,0,0,0-1.62,70.54l122.46,162.16a57.1,57.1,0,0,1,2.12,65.48l-125.45,191.11a57,57,0,0,0,7,71.07l283.27,286.17a53.77,53.77,0,0,0,38.3,16l139-.29c41.08-.09,67.27-45.07,47.9-82.26L1451.76,983.34C1433.68,948.63,1387.24,943.47,1362.34,973.41Z"/><path class="cls-3" d="M1135.39,1759l73.3-95.29a53.52,53.52,0,0,1,80.82-5.3l94.45,94.93c34.82,35,10.76,95.73-38,95.84l-167.76.35C1132.69,1849.61,1107.17,1795.67,1135.39,1759Z"/><path class="cls-2" d="M844.16,1757.87l-73.26-95.32a53.51,53.51,0,0,0-80.81-5.34l-94.5,94.88c-34.84,35-10.8,95.73,37.93,95.86l167.75.44C846.82,1848.51,872.37,1794.58,844.16,1757.87Z"/></svg>